<?xml version="1.0" encoding="UTF-8"?>
<svg width="746px" height="589px" viewBox="0 0 746 589" version="1.1" xmlns="http://www.w3.org/2000/svg" xmlns:xlink="http://www.w3.org/1999/xlink">
    <!-- Generator: Sketch 52.5 (67469) - http://www.bohemiancoding.com/sketch -->
    <title>Artboard Copy 6</title>
    <desc>Created with Sketch.</desc>
    <g id="Artboard-Copy-6" stroke="none" stroke-width="1" fill="none" fill-rule="evenodd">
        <g id="noun-skipping-rope-1553118" transform="translate(125.000000, 82.000000)" fill="#000000" fill-rule="nonzero">
            <path d="M248.001474,0 C190.868231,0 138.232429,28.2714908 100.235451,75.0772123 C63.0808832,120.842689 39.7768577,184.444476 38.7504177,257.580075 L4.47932897,257.580075 C1.95367649,258.015447 -0.0453719469,260.223412 0.000783407511,262.535038 L0.000783407511,302.164307 C0.0276932585,304.213307 1.62301126,306.168985 3.79123038,306.808258 L16.5346352,310.678217 L16.5346352,421.045037 C16.5346352,423.639988 19.1602745,425.99655 22.0472969,426 L66.1369778,426 C69.0240001,426 71.6496395,423.639988 71.6496395,421.045037 L71.6496395,310.678217 L84.3930443,306.808258 C86.5573269,306.16902 88.1526882,304.213307 88.1834912,302.164307 L88.1834912,262.535038 C88.1834912,259.940086 85.5578519,257.583524 82.6708295,257.580075 L49.7755443,257.580075 C50.8019843,186.320633 73.6208372,124.612693 109.191952,80.8003294 C125.252834,61.0153278 143.824214,44.812803 164.129617,32.9685158 C151.109674,48.6730322 143.289835,68.105978 143.289835,89.1585571 C143.289835,141.077932 190.23544,183.27597 248.00049,183.27597 C305.76554,183.27597 352.711145,141.079702 352.711145,89.1585571 C352.711145,68.1050935 344.891995,48.6694939 331.871363,32.9685158 C352.180703,44.8172258 370.748146,61.0153278 386.809028,80.8003294 C422.380143,124.617115 445.198996,186.319748 446.225436,257.580075 L412.295838,257.580075 C409.770185,258.015447 407.771137,260.223412 407.817292,262.535038 L407.817292,302.164307 C407.844202,304.213307 409.43952,306.168985 411.607739,306.808258 L424.351144,310.678217 L424.351144,421.045037 C424.351144,423.639988 426.976783,425.99655 429.863806,426 L473.953487,426 C476.840509,426 479.466148,423.639988 479.466148,421.045037 L479.466148,310.678217 L492.209553,306.808258 C494.373836,306.16902 495.969197,304.213307 496,302.164307 L496,262.535038 C496,259.940086 493.374361,257.583524 490.487338,257.580075 L457.250562,257.580075 C456.227961,184.444476 432.924034,120.835612 395.765529,75.0772123 C357.765599,28.2714908 305.129797,2.51407683e-14 247.999506,2.51407683e-14 L248.001474,0 Z M248.001474,9.9062115 C265.154733,9.9062115 281.888755,12.7603397 297.945701,17.9571423 C324.202095,32.8805903 341.688971,59.1512016 341.688971,89.1643953 C341.688971,135.73217 299.809629,173.373827 248.001474,173.373827 C196.193319,173.373827 154.313978,135.731285 154.313978,89.1643953 C154.313978,59.1512016 171.801838,32.8805903 198.057247,17.9571423 C214.114193,12.7603397 230.848216,9.9062115 248.001474,9.9062115 Z M11.024729,267.490709 L77.1567901,267.490709 L77.1567901,297.213766 L11.024729,297.213766 L11.024729,267.490709 Z M418.845174,267.490709 L484.977235,267.490709 L484.977235,297.213766 L418.845174,297.213766 L418.845174,267.490709 Z M27.5579903,307.119978 L60.6264812,307.119978 L60.6264812,336.843035 L27.5579903,336.843035 L27.5579903,307.119978 Z M435.378436,307.119978 L468.446926,307.119978 L468.446926,336.843035 L435.378436,336.843035 L435.378436,307.119978 Z M27.5579903,346.749247 L60.6264812,346.749247 L60.6264812,376.472304 L27.5579903,376.472304 L27.5579903,346.749247 Z M435.378436,346.749247 L468.446926,346.749247 L468.446926,376.472304 L435.378436,376.472304 L435.378436,346.749247 Z M27.5579903,386.378515 L60.6264812,386.378515 L60.6264812,416.101573 L27.5579903,416.101573 L27.5579903,386.378515 Z M435.378436,386.378515 L468.446926,386.378515 L468.446926,416.101573 L435.378436,416.101573 L435.378436,386.378515 Z" id="Shape"></path>
        </g>
    </g>
</svg>