<?xml version="1.0" encoding="UTF-8"?>
<svg width="746px" height="589px" viewBox="0 0 746 589" version="1.1" xmlns="http://www.w3.org/2000/svg" xmlns:xlink="http://www.w3.org/1999/xlink">
    <!-- Generator: Sketch 52.5 (67469) - http://www.bohemiancoding.com/sketch -->
    <title>Artboard Copy 6</title>
    <desc>Created with Sketch.</desc>
    <g id="Artboard-Copy-6" stroke="none" stroke-width="1" fill="none" fill-rule="evenodd">
        <g id="noun-swiss-ball-3878392" transform="translate(145.000000, 67.000000)" fill="#000000">
            <path d="M228,456 C167.532154,456 109.538837,431.978908 66.7781675,389.221833 C24.0210916,346.461163 0,288.470542 0,228 C0,167.529458 24.0210916,109.538837 66.7781675,66.7781675 C109.538837,24.0210916 167.529458,0 228,0 C288.470542,0 346.461163,24.0210916 389.221833,66.7781675 C431.978908,109.538837 456,167.529458 456,228 C456,288.470542 431.978908,346.461163 389.221833,389.221833 C346.461163,431.978908 288.470542,456 228,456 Z M228,15.7241379 C171.702195,15.7241379 117.706404,38.0892532 77.9018719,77.8973793 C38.0928473,117.706404 15.7286305,171.703094 15.7286305,227.995507 C15.7286305,284.287921 38.0937458,338.289103 77.9018719,378.093635 C117.710897,417.90266 171.707586,440.266877 228,440.266877 C284.292414,440.266877 338.293596,417.901762 378.098128,378.093635 C417.907153,338.284611 440.271369,284.287921 440.271369,227.995507 C440.271369,190.734692 430.461304,154.127101 411.831346,121.862069 C393.201387,89.5970365 366.402964,62.7950187 334.133438,44.1641616 C301.863913,25.5333044 265.256323,15.7241379 228,15.7241379 Z" id="Shape" fill-rule="nonzero"></path>
            <path d="M398.369999,121 C330.681822,121 282.593983,85.0818798 255.284839,13.9498459 C254.206146,10.0481471 256.27574,5.9641092 260.06349,4.51850996 C263.854747,3.07291071 268.120407,4.74306557 269.923026,8.37107596 C297.077454,79.1060956 344.378221,110.543882 414.429412,104.651543 C418.779356,104.283128 422.602276,107.500614 422.971255,111.844329 C423.340199,116.18454 420.114589,120.001985 415.768154,120.370436 C409.840559,120.787966 404.043033,120.998491 398.375216,120.998491 L398.369999,121 Z" id="Path"></path>
            <path d="M440.141206,295 C242.901026,295 132.327257,168.548668 94.3736554,50.2502847 C93.7386735,48.2659825 93.9175925,46.1101101 94.8753237,44.2587637 C95.8365575,42.4039231 97.4924697,41.0075292 99.4815761,40.3741078 C103.624769,39.0546741 108.059126,41.3365141 109.381305,45.4697005 C145.61056,158.517944 251.541164,279.315967 440.141647,279.315967 C444.481254,279.315967 448,282.826215 448,287.155341 C448,291.484467 444.481254,294.994714 440.141647,294.994714 L440.141206,295 Z" id="Path"></path>
            <path d="M448.556862,223.819187 L447.300044,223.819187 C265.715584,194.803259 216.490773,139.124045 168.677007,17.0196418 L168.673497,17.0196418 C167.806342,15.0660968 167.774742,12.839466 168.589238,10.8614536 C169.403735,8.88344112 170.994127,7.32200328 172.9917,6.54128436 C174.985857,5.7605744 177.218635,5.8270937 179.16363,6.72333858 C181.112131,7.61958347 182.604154,9.27207979 183.302846,11.2956215 C230.881138,132.925015 278.301249,180.918929 449.738765,208.290247 C454.081549,208.636843 457.32201,212.428389 456.974462,216.759045 C456.626913,221.0897 452.82473,224.321111 448.481946,223.974533 L448.556862,223.819187 Z" id="Path"></path>
            <path d="M401.779258,370.985776 L401.069929,370.985776 C215.27394,354.504376 92.6475082,266.679816 36.6426208,109.956277 C35.7822941,107.962633 35.785809,105.702775 36.6531557,103.716217 C37.5205033,101.726072 39.1779603,100.184489 41.2251502,99.4557194 C43.2723401,98.72695 45.5303349,98.8776102 47.4651554,99.8691581 C49.3999759,100.864231 50.8327302,102.609062 51.4297261,104.697244 C105.233972,255.070399 223.372821,339.437228 402.480586,355.29525 C406.824336,355.491457 410.188405,359.163334 409.991803,363.497382 C409.798672,367.831429 406.118567,371.187984 401.774817,370.991822 L401.779258,370.985776 Z" id="Path"></path>
            <path d="M329.001145,432 L327.980078,432 C175.103101,412.031556 89.8301031,356.535506 2.03296001,219.75611 C-0.037288355,216.123932 1.09606192,211.509188 4.61198986,209.249476 C8.12791781,206.989494 12.7947123,207.873866 15.2403487,211.267342 C100.127089,343.249353 182.498667,396.945934 329.635684,416.198364 C333.976136,416.47911 337.263993,420.22709 336.983283,424.568095 C336.702573,428.9091 332.95507,432.200879 328.611115,431.920133 L329.001145,432 Z" id="Path"></path>
        </g>
    </g>
</svg>