<?xml version="1.0" encoding="UTF-8"?>
<svg width="746px" height="589px" viewBox="0 0 746 589" version="1.1" xmlns="http://www.w3.org/2000/svg" xmlns:xlink="http://www.w3.org/1999/xlink">
    <!-- Generator: Sketch 52.5 (67469) - http://www.bohemiancoding.com/sketch -->
    <title>Artboard Copy 6</title>
    <desc>Created with Sketch.</desc>
    <g id="Artboard-Copy-6" stroke="none" stroke-width="1" fill="none" fill-rule="evenodd">
        <g id="noun-resistance-band-1094399" transform="translate(126.000000, 56.000000)" fill="#000000" fill-rule="nonzero">
            <path d="M494.858293,448.759145 C494.858293,415.644296 442.482599,342.428101 433.620744,330.270612 L433.620744,203.847245 C433.620744,150.879293 390.533982,107.78236 337.587072,107.78236 C285.132369,107.78236 242.428909,150.07513 241.615326,202.354257 C241.611156,202.487751 241.536083,202.600387 241.536083,202.729704 C241.536083,249.110569 203.812344,286.83467 157.450966,286.83467 C111.09386,286.83467 73.3658498,249.106298 73.3658498,202.725432 L73.3658498,147.763627 C82.1784834,135.670214 134.629023,62.3781947 134.629023,29.2430554 C134.629023,29.03864 134.533097,28.8717735 134.516413,28.6757094 C134.583144,28.3169439 134.733283,27.9873866 134.733283,27.6161048 L134.733283,18.2757482 C134.733283,8.19701428 126.537883,0 116.453306,0 L18.2799767,0 C8.19945732,0 0,8.19733467 0,18.2757482 L0,27.6161048 C0,28.0332656 0.15431371,28.4003824 0.237732586,28.7925533 C0.225220288,28.9469035 0.145978228,29.0845723 0.145978228,29.2472631 C0.145978228,62.3781307 52.5878691,135.67015 61.4006095,147.767834 L61.4006095,202.72964 C61.4006095,255.697592 104.487372,298.794525 157.442823,298.794525 C209.897526,298.794525 252.600987,256.501755 253.414569,204.222628 C253.41874,204.089135 253.493812,203.976498 253.493812,203.847181 C253.493812,157.466316 291.217551,119.742215 337.578929,119.742215 C383.940307,119.742215 421.655504,157.474859 421.655504,203.847181 L421.655504,330.21715 C412.884617,342.24435 360.375248,415.602582 360.375248,448.748401 C360.375248,448.952816 360.471174,449.119683 360.487858,449.315747 C360.421127,449.674513 360.270988,449.995729 360.270988,450.375352 L360.270988,459.715708 C360.270988,469.798607 368.466388,478 378.550965,478 L476.720023,478 C486.800543,478 495,469.802665 495,459.715708 L495,450.375352 C495,449.958191 494.845686,449.591074 494.762267,449.198903 C494.783121,449.044553 494.858193,448.91106 494.858193,448.748369 L494.858293,448.759145 Z M12.4744681,33.6167613 L122.297399,33.6167613 C118.606383,59.3809421 85.2911499,110.513096 67.3859336,135.642917 C49.4732434,110.52164 16.1697546,59.3937575 12.4787389,33.6167613 L12.4744681,33.6167613 Z M11.9572988,18.2938819 C11.9572988,14.8147297 14.7933057,11.9779465 18.2759077,11.9779465 L116.444966,11.9779465 C119.931626,11.9779465 122.763575,14.8146229 122.763575,18.2938819 L122.763575,21.656201 L11.9572988,21.656201 L11.9572988,18.2938819 Z M427.62097,342.393927 C445.53366,367.519476 478.837149,418.643087 482.528165,444.415811 L372.705234,444.415811 C376.39625,418.647358 409.702941,367.519476 427.616699,342.393927 L427.62097,342.393927 Z M483.049199,459.739758 C483.049199,463.227241 480.213192,466.059859 476.73059,466.059859 L378.557261,466.059859 C375.070602,466.059859 372.238652,463.223182 372.238652,459.739758 L372.238652,456.377439 L483.054538,456.377439 L483.049199,459.739758 Z" id="Shape"></path>
        </g>
    </g>
</svg>